<svg width="19" height="14" viewBox="0 0 19 14" fill="none" xmlns="http://www.w3.org/2000/svg">
<path d="M11.954 12.4138V10.5747H15.6322V12.4138H11.954ZM11.954 5.05747V3.21839H18.3908V5.05747H11.954ZM11.954 8.73563V6.89655H17.4713V8.73563H11.954ZM0.91954 3.21839H0V1.37931H3.67816V0H7.35632V1.37931H11.0345V3.21839H10.1149V11.4943C10.1149 12 9.93487 12.433 9.57471 12.7931C9.21456 13.1533 8.78161 13.3333 8.27586 13.3333H2.75862C2.25287 13.3333 1.81992 13.1533 1.45977 12.7931C1.09962 12.433 0.91954 12 0.91954 11.4943V3.21839ZM2.75862 3.21839V11.4943H8.27586V3.21839H2.75862Z" fill="#EAEAEA"/>
</svg>
